<svg xmlns="http://www.w3.org/2000/svg" viewBox="0 0 33 32">
  <path fill="#161514" fill-rule="evenodd" d="M16.2885009 0C7.2942243 0 0 7.293 0 16.29c0 7.197 4.66714351 13.302 11.1403426 15.456.815025.15 1.1120342-.353 1.1120342-.785 0-.386-.0140005-1.411-.0220007-2.77-4.53113935.984-5.48716875-2.184-5.48716875-2.184-.74102278-1.882-1.80905563-2.383-1.80905563-2.383-1.47904548-1.01.11200345-.99.11200345-.99 1.63505028.115 2.49507672 1.679 2.49507672 1.679 1.45304468 2.489 3.81311721 1.77 4.74114581 1.353.1480045-1.052.5690175-1.77 1.0340318-2.177-3.61711125-.411-7.42022819-1.809-7.42022819-8.051 0-1.778.63501952-3.233 1.67705157-4.371-.16800517-.412-.72702236-2.069.16000492-4.311 0 0 1.36704203-.438 4.4791377 1.67 1.29904-.362 2.6930828-.542 4.0781254-.549 1.3840426.007 2.7770854.187 4.0781254.549 3.1100957-2.108 4.4751376-1.67 4.4751376-1.67.8890274 2.242.3300102 3.899.1630051 4.311 1.0440321 1.138 1.6740514 2.593 1.6740514 4.371 0 6.258-3.8091171 7.635-7.4372287 8.038.584018.503 1.105034 1.497 1.105034 3.017 0 2.177-.0200006 3.934-.0200006 4.468 0 .436.294009.943 1.1200344.784 6.4681989-2.159 11.1313423-8.26 11.1313423-15.455 0-8.997-7.2942243-16.29-16.2915009-16.29"/>
</svg>